<svg xmlns="http://www.w3.org/2000/svg" width="237" height="236" viewBox="0 0 237 236" version="1.1"><path d="M 83.500 10 C 83.160 10.550, 82.078 11, 81.095 11 C 78.928 11, 73.295 13.714, 72.377 15.199 C 71.700 16.295, 79.687 23.971, 81.500 23.966 C 82.050 23.965, 84.359 22.734, 86.630 21.232 C 88.902 19.729, 91.555 18.031, 92.525 17.457 C 94.178 16.481, 94.138 16.180, 91.895 12.720 C 90.118 9.978, 88.806 9.022, 86.809 9.012 C 85.329 9.006, 83.840 9.450, 83.500 10 M 15.361 72.175 C 13.271 75.432, 12 78.359, 12 79.914 C 12 80.841, 11.619 82.028, 11.154 82.550 C 9.175 84.771, 5 109.162, 5 118.500 C 5 127.210, 8.549 148.592, 10.975 154.500 C 19.824 176.049, 25.854 185.692, 38.500 198.516 C 44.333 204.431, 56.204 213.636, 61.681 216.490 C 63.782 217.585, 65.725 218.735, 66 219.046 C 66.958 220.129, 76.168 224.084, 79.094 224.669 C 80.715 224.993, 82.284 225.650, 82.580 226.129 C 82.876 226.608, 84.190 227, 85.500 227 C 86.810 227, 88.160 227.450, 88.500 228 C 88.840 228.550, 90.640 229, 92.500 229 C 94.360 229, 96.160 229.450, 96.500 230 C 96.840 230.550, 99.274 231, 101.910 231 C 104.545 231, 108.050 231.470, 109.699 232.045 C 111.347 232.619, 116.252 232.957, 120.598 232.795 L 128.500 232.500 121 230.169 C 106.860 225.773, 104.644 224.899, 93.823 219.455 C 87.792 216.421, 81.631 214, 79.939 214 C 77.367 214, 76.659 213.422, 75.350 210.250 C 74.499 208.188, 70.330 202.900, 66.085 198.500 C 56.440 188.503, 50.440 180.044, 44.804 168.500 C 36.565 151.625, 33.893 139.887, 33.446 118.599 L 33.112 102.699 29.556 99.057 C 26.125 95.544, 26 95.153, 25.999 87.958 C 25.997 80.033, 25.567 79.144, 18.834 73.175 C 16.771 71.346, 16.029 71.133, 15.361 72.175" stroke="none" fill="#0193fa" fill-rule="evenodd"/><path d="M 126.093 10.139 C 124.402 13.087, 123.015 16.123, 123.009 16.884 C 123.004 17.645, 120.720 20.511, 117.934 23.254 C 113.265 27.849, 112.580 28.195, 109.184 27.661 C 106.451 27.232, 104.468 25.908, 101.500 22.533 C 96.474 16.816, 93.854 16.761, 87.625 22.239 C 86.537 23.195, 84.918 24.209, 84.027 24.492 C 82.685 24.917, 82.479 26.168, 82.829 31.753 C 83.455 41.718, 83.992 42.626, 89.633 43.262 C 95.089 43.877, 98 46.561, 98 50.976 C 98 54.783, 95.198 57.995, 86.209 64.492 C 81.969 67.556, 76.746 71.399, 74.601 73.031 C 70.963 75.801, 70.115 76, 61.923 76 C 55.171 76, 52.769 76.373, 51.527 77.616 C 49.226 79.917, 50.089 81.325, 54.340 82.208 C 59.478 83.276, 62.544 85.519, 64.501 89.643 C 66.428 93.704, 65.866 97.413, 62.832 100.665 L 60.812 102.829 62.840 103.915 C 63.956 104.512, 67.823 105, 71.434 105 L 78 105 78.060 99.250 C 78.143 91.170, 79.445 84.126, 81.174 82.398 C 83.352 80.219, 85.849 81.715, 86.941 85.853 C 87.680 88.656, 91 115.368, 91 118.517 C 91 118.849, 94.054 118.820, 97.788 118.452 C 103.364 117.903, 104.813 118.070, 105.909 119.391 C 107 120.704, 107.012 121.557, 105.977 124.055 C 104.094 128.602, 105.614 129.507, 114.513 129.136 C 121.666 128.837, 122.104 128.950, 124.989 131.835 C 127.310 134.156, 128 135.742, 128 138.755 L 128 142.665 133.340 142.222 C 138.226 141.816, 138.865 142.012, 140.840 144.524 C 143.642 148.086, 143.565 150.175, 140.496 153.822 L 137.992 156.798 141.568 158.908 C 143.885 160.274, 145.026 161.626, 144.810 162.747 C 144.297 165.410, 141.515 165.383, 135.556 162.654 L 130.111 160.162 129.806 163.831 C 129.564 166.731, 129.081 167.500, 127.500 167.500 C 125.828 167.500, 125.336 166.500, 124.500 161.412 C 123.870 157.577, 123.071 155.468, 122.342 155.714 C 121.704 155.930, 119.980 158.564, 118.510 161.569 C 115.712 167.289, 112.187 170, 107.550 170 C 105.171 170, 105 170.322, 105 174.800 C 105 177.440, 104.460 180.140, 103.800 180.800 C 103.140 181.460, 102.896 182, 103.257 182 C 103.619 182, 101.684 184.087, 98.957 186.637 L 94 191.274 94 200.637 C 94 208.667, 93.715 210.285, 92 212 C 90.900 213.100, 89.460 214, 88.800 214 C 86.684 214, 89.212 215.706, 97.559 219.913 C 101.992 222.146, 107.064 224.263, 108.830 224.616 C 110.596 224.969, 112.284 225.650, 112.580 226.129 C 112.876 226.608, 114.190 227, 115.500 227 C 116.810 227, 118.160 227.450, 118.500 228 C 118.840 228.550, 120.582 229, 122.370 229 C 124.184 229, 126.525 229.841, 127.663 230.901 C 129.341 232.464, 130.395 232.652, 133.602 231.958 C 135.746 231.494, 139.975 230.602, 143 229.976 C 148.814 228.773, 157.156 226.414, 160.500 225.028 C 174.805 219.099, 189.528 209.472, 199.908 199.259 L 207.352 191.934 204.476 189.717 C 193.893 181.560, 187 169.125, 187 158.191 L 187 155.013 182.539 158.419 C 177.699 162.113, 173.267 163.537, 169.918 162.474 C 168.205 161.930, 167.900 161.248, 168.355 158.975 C 168.666 157.422, 168.508 152.629, 168.004 148.325 C 167.141 140.945, 167.212 140.396, 169.257 138.668 C 170.850 137.321, 172.667 136.924, 176.110 137.168 L 180.796 137.500 179.398 134.800 C 178.629 133.314, 178 129.432, 178 126.171 C 178 120.525, 177.857 120.183, 174.995 118.998 C 171.349 117.488, 166.265 111.879, 164.317 107.216 C 162.431 102.703, 162.437 95.283, 164.329 90.754 C 166.102 86.511, 173.332 78.347, 176.092 77.471 C 179.161 76.497, 178.417 74, 175.059 74 C 173.441 74, 171.840 73.550, 171.500 73 C 171.160 72.450, 168.503 72, 165.595 72 C 159.632 72, 153.982 69.648, 153.254 66.862 C 152.986 65.838, 152.369 65, 151.883 65 C 149.637 65, 152.356 55.134, 155.063 53.461 C 155.578 53.142, 156 50.073, 156 46.640 C 156 40.743, 157.597 35.025, 159.250 35.008 C 159.662 35.004, 160 34.138, 160 33.083 C 160 32.029, 160.563 30.979, 161.250 30.749 C 162.250 30.416, 162.250 29.396, 161.250 25.652 C 160.563 23.078, 160 19.215, 160 17.069 C 160 14.861, 160.543 12.965, 161.250 12.703 C 162.595 12.203, 158.663 10.350, 153 8.816 C 144.367 6.476, 141.105 5.831, 135.334 5.322 L 129.167 4.778 126.093 10.139 M 197.657 79.033 L 198.263 82.066 194.234 81.421 C 183.632 79.726, 172.833 88.370, 172.833 98.551 C 172.833 104.022, 174.920 107.518, 179.487 109.695 C 182.657 111.207, 183.056 111.193, 185.667 109.482 C 187.202 108.477, 189.818 107.376, 191.479 107.036 C 195.035 106.309, 195.796 102.723, 192.500 102.225 C 187.261 101.432, 186 100.849, 186 99.221 C 186 97.072, 188.648 95.344, 193.272 94.477 C 197.892 93.610, 200.672 95.213, 201.536 99.242 C 202.505 103.760, 202.859 104.146, 204.989 103.006 C 206.581 102.154, 206.773 101.200, 206.292 96.539 C 205.948 93.211, 206.206 89.917, 206.950 88.120 C 208.515 84.342, 206.267 79.093, 202.295 77.250 C 197.957 75.237, 196.973 75.615, 197.657 79.033 M 130.500 80.960 C 126.132 81.987, 121.877 84.425, 118.803 87.661 C 109.735 97.207, 111.017 115.012, 121.261 121.791 C 126.362 125.167, 136.950 126.111, 141.768 123.620 C 145.496 121.692, 151.403 114.673, 153.479 109.705 C 156.889 101.544, 154.549 91.164, 148.069 85.712 C 143.543 81.903, 135.611 79.758, 130.500 80.960 M 50 91.461 C 50 92.265, 51.008 93.861, 52.239 95.008 L 54.479 97.095 55.443 94.933 C 56.199 93.238, 55.998 92.472, 54.513 91.386 C 52.049 89.584, 50 89.619, 50 91.461 M 127.750 92.080 C 125.009 93.677, 123 98.479, 123 103.435 C 123 112.768, 132.244 117.814, 138.602 111.950 C 144.003 106.968, 145.470 99.681, 141.750 96.309 C 140.128 94.839, 130.467 90.651, 129.572 91.030 C 129.532 91.047, 128.712 91.519, 127.750 92.080 M 35.550 121 C 35.892 138.880, 36.689 147, 38.101 147 C 38.595 147, 39 147.789, 39 148.754 C 39 152.642, 44.872 167.035, 49.505 174.500 C 50.870 176.700, 52.294 179.175, 52.670 180 C 53.046 180.825, 53.634 181.725, 53.975 182 C 54.317 182.275, 55.655 184.075, 56.948 186 C 59.653 190.026, 73.066 204, 74.225 204 C 75.997 204, 74.795 197.071, 71.999 191.160 C 69.970 186.870, 69 183.275, 69 180.042 C 69 177.327, 67.556 170.849, 65.657 165.045 C 62.380 155.030, 62.207 154.753, 56.942 151.163 C 48.197 145.200, 44 140.622, 44 137.047 C 44 134.988, 43.408 133.727, 42.250 133.317 C 38.127 131.855, 37.002 129.817, 36.883 123.595 C 36.819 120.243, 36.422 114.575, 36 111 C 35.483 106.611, 35.337 109.858, 35.550 121 M 4.365 118.500 C 4.368 124, 4.536 126.122, 4.738 123.216 C 4.941 120.311, 4.939 115.811, 4.734 113.216 C 4.528 110.622, 4.363 113, 4.365 118.500 M 148.379 140.625 C 147.174 145.426, 148.713 161.025, 150.597 163.107 C 154.162 167.047, 165.384 164.048, 163.681 159.611 C 163.196 158.348, 162.070 157.986, 159.306 158.205 L 155.583 158.500 154.289 149.500 C 153.577 144.550, 152.785 139.938, 152.528 139.250 C 151.705 137.040, 149.059 137.917, 148.379 140.625 M 173 143.752 C 173 148.923, 174.376 155, 175.547 155 C 176.870 155, 182 149.462, 182 148.034 C 182 146.306, 178.372 143.055, 175.750 142.434 C 173.461 141.892, 173 142.113, 173 143.752 M 131.250 147.220 C 129.838 147.902, 129 149.204, 129 150.720 C 129 152.757, 129.352 153.030, 131.250 152.463 C 134.321 151.546, 137.393 148.445, 136.562 147.101 C 135.732 145.757, 134.213 145.791, 131.250 147.220 M 30.750 191.500 C 32.451 193.700, 36.455 197.975, 39.648 201 C 44.563 205.656, 44.315 205.272, 38.034 198.500 C 27.916 187.591, 27.183 186.887, 30.750 191.500" stroke="none" fill="#23a8fe" fill-rule="evenodd"/><path d="M 83.500 10 C 83.160 10.550, 82.078 11, 81.095 11 C 78.928 11, 73.295 13.714, 72.377 15.199 C 71.700 16.295, 79.687 23.971, 81.500 23.966 C 82.050 23.965, 84.359 22.734, 86.630 21.232 C 88.902 19.729, 91.555 18.031, 92.525 17.457 C 94.178 16.481, 94.138 16.180, 91.895 12.720 C 90.118 9.978, 88.806 9.022, 86.809 9.012 C 85.329 9.006, 83.840 9.450, 83.500 10 M 15.361 72.175 C 13.271 75.432, 12 78.359, 12 79.914 C 12 80.841, 11.619 82.028, 11.154 82.550 C 9.175 84.771, 5 109.162, 5 118.500 C 5 127.210, 8.549 148.592, 10.975 154.500 C 19.824 176.049, 25.854 185.692, 38.500 198.516 C 44.333 204.431, 56.204 213.636, 61.681 216.490 C 63.782 217.585, 65.725 218.735, 66 219.046 C 66.958 220.129, 76.168 224.084, 79.094 224.669 C 80.715 224.993, 82.284 225.650, 82.580 226.129 C 82.876 226.608, 84.190 227, 85.500 227 C 86.810 227, 88.160 227.450, 88.500 228 C 88.840 228.550, 90.640 229, 92.500 229 C 94.360 229, 96.160 229.450, 96.500 230 C 96.840 230.550, 99.274 231, 101.910 231 C 104.545 231, 108.050 231.470, 109.699 232.045 C 111.347 232.619, 116.252 232.957, 120.598 232.795 L 128.500 232.500 121 230.169 C 106.860 225.773, 104.644 224.899, 93.823 219.455 C 87.792 216.421, 81.631 214, 79.939 214 C 77.367 214, 76.659 213.422, 75.350 210.250 C 74.499 208.188, 70.330 202.900, 66.085 198.500 C 56.440 188.503, 50.440 180.044, 44.804 168.500 C 36.565 151.625, 33.893 139.887, 33.446 118.599 L 33.112 102.699 29.556 99.057 C 26.125 95.544, 26 95.153, 25.999 87.958 C 25.997 80.033, 25.567 79.144, 18.834 73.175 C 16.771 71.346, 16.029 71.133, 15.361 72.175" stroke="none" fill="#0193fa" fill-rule="evenodd"/><path d="M 98.625 4.528 C 94.294 5.255, 90.292 6.308, 89.732 6.868 C 89.172 7.428, 91.366 7.219, 94.607 6.404 C 97.848 5.589, 106.798 4.648, 114.496 4.312 C 127.040 3.766, 128.359 3.863, 127.211 5.246 C 126.506 6.095, 124.483 7.030, 122.715 7.323 C 117.281 8.226, 113.601 9.109, 111.250 10.075 C 106.184 12.157, 104.315 12.945, 100.500 14.608 C 98.300 15.567, 96.388 16.422, 96.251 16.508 C 96.115 16.594, 98.152 19.002, 100.779 21.859 C 104.345 25.738, 106.481 27.204, 109.211 27.647 C 112.582 28.194, 113.265 27.850, 117.934 23.254 C 120.720 20.511, 123.004 17.645, 123.009 16.884 C 123.015 16.123, 124.374 13.138, 126.030 10.250 C 128.778 5.458, 129.366 4.989, 132.770 4.875 L 136.500 4.750 132 3.949 C 125.178 2.735, 107.470 3.042, 98.625 4.528 M 180.109 21.803 C 181.198 23.547, 181.056 24.502, 179.163 28.183 C 177.769 30.894, 176.921 34.378, 176.893 37.506 C 176.865 40.687, 175.944 44.403, 174.354 47.744 C 172.982 50.628, 172.003 53.987, 172.180 55.209 C 172.678 58.666, 178.480 62, 183.999 62 C 189.206 62, 192.910 63.015, 200.777 66.597 C 206.965 69.415, 207.837 69.488, 211.636 67.506 C 215.438 65.523, 218.893 65.610, 221.357 67.750 C 223.154 69.311, 223.116 69.068, 221.009 65.500 C 214.556 54.573, 207.580 45.587, 198.500 36.504 C 188.354 26.354, 177.566 17.730, 180.109 21.803 M 78 28.145 C 60.552 42.624, 49.576 57.652, 41.225 78.500 L 38.421 85.500 44.675 84 C 48.115 83.175, 50.495 82.350, 49.965 82.167 C 48.652 81.713, 48.793 80.858, 50.573 78.500 C 51.847 76.812, 53.617 76.419, 61.907 75.982 C 70.704 75.517, 72.086 75.178, 75.116 72.735 C 76.977 71.235, 81.969 67.513, 86.209 64.464 C 95.187 58.008, 98 54.790, 98 50.976 C 98 46.591, 95.085 43.877, 89.727 43.273 C 87.145 42.982, 84.598 42.220, 84.066 41.580 C 83.535 40.940, 82.966 37.321, 82.800 33.538 C 82.635 29.755, 82.050 26.527, 81.500 26.365 C 80.950 26.203, 79.375 27.004, 78 28.145 M 226.927 82.500 C 226.787 84.150, 226.779 87.544, 226.909 90.042 C 227.160 94.841, 226.947 95.075, 219.750 97.875 C 218.512 98.357, 216.241 99.257, 214.703 99.875 C 213.165 100.494, 210.915 101.015, 209.703 101.033 C 207.033 101.074, 202.606 104.554, 203.463 105.939 C 204.641 107.847, 202.744 117.239, 200.853 118.858 C 199.834 119.730, 199 121.215, 199 122.156 C 199 123.780, 203.566 135.369, 205.045 137.500 C 205.427 138.050, 206.270 141.650, 206.919 145.500 C 209.448 160.512, 211.598 166.652, 216.295 172.273 L 218.611 175.045 222.666 166.773 C 235.141 141.316, 237.460 111.953, 229.082 85.500 C 227.452 80.351, 227.146 79.926, 226.927 82.500 M 46.132 91.231 C 42.833 92.100, 42.777 92.205, 43.427 96.272 C 43.793 98.556, 44.286 100.619, 44.523 100.857 C 45.207 101.540, 54 97.931, 54 96.967 C 54 96.490, 53.351 95.736, 52.557 95.292 C 51.764 94.848, 50.752 93.553, 50.307 92.414 C 49.606 90.616, 49.058 90.460, 46.132 91.231 M 69.636 110.669 C 72.486 116.299, 72.541 118.210, 70.016 123.775 C 68.378 127.384, 67.098 128.512, 61.788 131.024 C 57.085 133.249, 54.051 133.999, 49.750 133.999 C 44.244 134, 44 134.109, 44 136.566 C 44 137.977, 44.441 139.955, 44.980 140.962 C 45.899 142.680, 60.178 154, 61.425 154 C 61.741 154, 62 153.067, 62 151.927 C 62 150.490, 62.538 149.957, 63.750 150.190 C 64.872 150.406, 66.570 153.212, 68.484 158.013 L 71.467 165.500 72.346 161 C 74.474 150.112, 74.995 148.859, 77.255 149.188 C 78.939 149.433, 79.826 150.896, 81.389 156 L 83.379 162.500 84.103 155.795 C 84.935 148.078, 85.413 147, 88 147 C 90.978 147, 91.267 148.547, 90.020 157.808 C 88.270 170.813, 87.357 173.180, 84.231 172.807 C 82.191 172.564, 81.360 171.615, 80.244 168.250 C 79.468 165.912, 78.474 164, 78.035 164 C 77.597 164, 76.743 165.962, 76.139 168.360 C 74.925 173.183, 72.823 175.530, 70.513 174.643 C 69.270 174.166, 69 175.093, 69 179.831 C 69 183.004, 69.374 186.028, 69.831 186.550 C 72.358 189.438, 76 200.592, 76 205.443 C 76 208.652, 76.528 211.194, 77.334 211.863 C 78.068 212.472, 81.479 213.089, 84.914 213.235 C 93.229 213.588, 94 212.524, 94 200.693 L 94 191.767 99.500 185.827 C 104.631 180.284, 105 179.553, 105 174.918 C 105 170.540, 104.704 169.838, 102.500 169 C 98.570 167.506, 95.812 162.269, 96.321 157.264 C 96.850 152.056, 99.053 148.541, 103.100 146.448 C 109.323 143.230, 118.021 147.267, 119.515 154.066 C 120.066 156.578, 120.425 156.843, 122.078 155.958 C 123.620 155.133, 124 153.831, 124 149.371 C 124 144.654, 124.303 143.734, 126 143.290 C 128.508 142.634, 128.776 136.553, 126.443 133.223 C 125.073 131.266, 124 131, 117.490 131 C 109.784 131, 105 129.609, 105 127.368 C 105 126.452, 103.596 126.803, 100.351 128.528 C 92.087 132.922, 83.197 131.110, 80.421 124.466 C 79.620 122.548, 79 117.780, 79 113.532 L 79 106 73.136 106 L 67.272 106 69.636 110.669 M 46.677 110.750 C 45.597 112.585, 46.247 122.960, 47.507 124.006 C 49.223 125.430, 54.795 124.411, 58.882 121.926 C 62.969 119.440, 63.183 115.075, 59.365 112.073 C 56.734 110.003, 47.672 109.058, 46.677 110.750 M 103.035 152.934 C 101.505 155.794, 101.778 160.635, 103.571 162.429 C 106.574 165.431, 111.187 163.770, 112.814 159.102 C 114.038 155.593, 112.872 153.599, 108.685 152.045 C 104.829 150.614, 104.226 150.708, 103.035 152.934" stroke="none" fill="#43cb8e" fill-rule="evenodd"/><path d="M 102.500 5.582 C 89.171 7.812, 89.711 7.541, 91.538 11.074 C 93.600 15.061, 95.088 15.500, 99.680 13.478 C 101.781 12.553, 104.400 11.407, 105.500 10.932 C 106.600 10.457, 110.650 9.115, 114.500 7.950 C 118.350 6.785, 122.625 5.455, 124 4.995 C 128.111 3.619, 111.532 4.071, 102.500 5.582 M 162 17.935 C 162 20.649, 162.474 24.117, 163.053 25.640 C 163.944 27.984, 163.605 29.496, 160.854 35.455 C 158.714 40.089, 157.455 44.553, 157.174 48.500 C 156.913 52.163, 156.017 55.534, 154.873 57.154 C 152.217 60.918, 152.544 63.771, 156.001 67.001 C 158.363 69.207, 160.332 69.945, 165.251 70.468 C 168.688 70.834, 173.879 71.795, 176.786 72.605 C 179.693 73.414, 183.743 74.027, 185.786 73.966 C 187.829 73.906, 192.767 74.179, 196.759 74.574 C 206.224 75.510, 209 77.920, 209 85.202 C 209 87.913, 208.512 91.043, 207.916 92.156 C 207.124 93.636, 207.157 94.965, 208.038 97.091 C 208.700 98.691, 209.532 100, 209.885 100 C 211.229 100, 221.330 96.025, 223.285 94.727 C 227.292 92.066, 225.951 71.778, 221.569 68.765 C 219.973 67.668, 212.211 67.849, 211.500 69 C 210.384 70.806, 204.488 70.048, 199.217 67.421 C 196.316 65.975, 190.846 64.420, 186.771 63.883 C 182.772 63.355, 178.284 62.445, 176.799 61.861 C 171.227 59.668, 169.319 52.706, 173 48 C 174.414 46.193, 174.962 43.913, 174.978 39.772 C 174.994 35.603, 175.737 32.541, 177.710 28.518 C 180.085 23.676, 180.240 22.813, 178.960 21.544 C 177.308 19.906, 164.349 13, 162.927 13 C 162.417 13, 162 15.221, 162 17.935 M 65.228 17.855 C 57.896 21.559, 45.085 31.192, 37.971 38.350 C 31.248 45.115, 20.865 59.335, 18.049 65.636 L 16.200 69.772 21.100 74.598 L 26 79.425 26 87.009 C 26 94.499, 26.049 94.642, 29.872 98.375 C 33.698 102.111, 33.751 102.128, 34.336 99.798 C 35.026 97.048, 34.161 93, 32.883 93 C 31.140 93, 32.052 90.541, 34.904 87.548 C 36.501 85.871, 38.541 82.304, 39.436 79.620 C 44.765 63.649, 55.745 47.191, 70.114 33.635 L 80.302 24.025 77.401 21.765 C 75.805 20.522, 73.592 18.539, 72.482 17.357 L 70.465 15.209 65.228 17.855 M 192 119.986 C 191.175 120.527, 188.190 120.976, 185.367 120.985 C 180.891 120.998, 180.158 121.288, 179.645 123.250 C 179.321 124.487, 179.343 127.300, 179.693 129.500 C 180.306 133.358, 181.005 134.815, 185.638 141.895 C 187.206 144.291, 187.954 147.475, 188.440 153.831 C 188.804 158.599, 189.582 163.850, 190.169 165.500 C 193.839 175.831, 198.572 183.026, 204.102 186.686 L 208.064 189.308 210.032 187.196 C 211.114 186.034, 212 184.652, 212 184.125 C 212 183.598, 212.338 183.017, 212.750 182.833 C 213.162 182.650, 214.329 181.010, 215.343 179.188 C 217.173 175.900, 217.168 175.849, 214.753 172.188 C 208.695 163.004, 208.690 162.991, 206.064 148.500 C 205.032 142.806, 202.942 135.701, 201.210 132 C 199.537 128.425, 197.756 124.150, 197.251 122.500 C 196.269 119.287, 194.418 118.400, 192 119.986" stroke="none" fill="#00ba66" fill-rule="evenodd"/><path d="M 178.500 76.353 C 172.887 78.972, 166.560 85.415, 164.308 90.804 C 158.103 105.656, 170.652 122.674, 186.232 120.534 C 189.129 120.137, 193.677 119.703, 196.338 119.571 C 199 119.440, 201.533 118.756, 201.968 118.051 C 204.822 113.434, 203.127 99.270, 199.257 95.400 C 196.329 92.471, 186 95.448, 186 99.221 C 186 100.850, 187.290 101.445, 192.500 102.219 C 195.612 102.682, 195.842 108.479, 192.813 110.100 C 187.387 113.004, 177.755 110.609, 174.426 105.528 C 171.950 101.749, 172.380 94.535, 175.349 90.048 C 179.258 84.142, 184.305 81.513, 191.750 81.506 C 196.930 81.501, 198 81.213, 198 79.823 C 198 78.900, 196.814 77.212, 195.365 76.073 C 191.765 73.240, 184.926 73.354, 178.500 76.353 M 128.216 81.914 C 125.309 82.905, 121.794 84.785, 120.403 86.091 C 108.966 96.836, 110.600 116.755, 123.427 122.965 C 128.482 125.412, 137.770 125.687, 141.970 123.516 C 145.521 121.679, 151.447 114.569, 153.479 109.705 C 158.033 98.806, 152.327 85.385, 141.775 82.176 C 135.213 80.180, 133.404 80.145, 128.216 81.914 M 80.273 83.708 C 78.729 86.066, 78.524 88.636, 78.682 103.577 C 78.815 116.173, 79.260 121.686, 80.353 124.302 C 83.157 131.013, 91.968 132.963, 100.093 128.672 C 105.602 125.763, 108.051 121.972, 106.011 119.513 C 104.844 118.107, 103.515 117.946, 97.809 118.519 C 94.064 118.895, 91 118.817, 91 118.345 C 91 116.875, 88.057 91.700, 87.421 87.730 C 86.835 84.070, 84.796 81, 82.952 81 C 82.454 81, 81.248 82.219, 80.273 83.708 M 44 84.052 C 38.462 85.486, 35.922 86.705, 34.290 88.713 C 32.378 91.065, 32.269 91.640, 33.482 92.980 C 34.456 94.057, 35.249 99.845, 36.087 112.014 C 37.543 133.165, 37.585 133.242, 47.959 133.828 C 54.114 134.176, 55.698 133.862, 61.497 131.148 C 67.119 128.517, 68.344 127.458, 70.010 123.788 C 71.080 121.429, 71.956 118.600, 71.956 117.500 C 71.956 113.551, 68.259 107.323, 64.556 105.035 L 60.876 102.760 62.923 100.582 C 67.622 95.580, 65.687 87.447, 58.938 83.827 C 54.758 81.586, 53.450 81.605, 44 84.052 M 46.132 91.149 C 42.842 92.096, 42.779 92.215, 43.427 96.272 C 43.793 98.556, 44.286 100.619, 44.523 100.857 C 44.761 101.094, 47.023 100.499, 49.549 99.534 C 55.193 97.379, 57.512 93.579, 54.519 91.390 C 52.363 89.814, 50.918 89.772, 46.132 91.149 M 127.750 92.080 C 125.009 93.677, 123 98.479, 123 103.435 C 123 112.768, 132.244 117.814, 138.602 111.950 C 144.003 106.968, 145.470 99.681, 141.750 96.309 C 140.128 94.839, 130.467 90.651, 129.572 91.030 C 129.532 91.047, 128.712 91.519, 127.750 92.080 M 46.667 110.667 C 45.346 111.987, 45.959 122.721, 47.424 123.937 C 49.224 125.431, 54.699 124.469, 58.882 121.926 C 65.704 117.777, 61.237 110, 52.032 110 C 49.448 110, 47.033 110.300, 46.667 110.667 M 170 138.315 C 168.255 139.213, 167.554 140.340, 167.680 142.050 C 167.779 143.398, 168.036 148.296, 168.251 152.936 C 168.544 159.241, 169.043 161.625, 170.228 162.372 C 172.606 163.872, 178.957 161.614, 183.566 157.629 C 187.203 154.486, 187.500 153.836, 187.500 149.038 C 187.500 144.320, 187.159 143.534, 183.765 140.423 C 179.657 136.658, 174.698 135.899, 170 138.315 M 148.379 140.625 C 147.174 145.426, 148.713 161.025, 150.597 163.107 C 154.162 167.047, 165.384 164.048, 163.681 159.611 C 163.195 158.344, 162.067 157.985, 159.264 158.205 L 155.500 158.500 154.241 149.500 C 153.549 144.550, 152.775 139.938, 152.522 139.250 C 151.709 137.038, 149.059 137.918, 148.379 140.625 M 127.500 142.876 C 124.502 143.514, 124.500 143.519, 124.214 151.507 C 123.834 162.103, 124.958 167.500, 127.545 167.500 C 129.074 167.500, 129.567 166.701, 129.806 163.831 L 130.111 160.162 135.556 162.654 C 141.515 165.383, 144.297 165.410, 144.810 162.747 C 145.026 161.626, 143.885 160.274, 141.568 158.908 L 137.992 156.798 140.496 153.822 C 143.542 150.202, 143.642 148.085, 140.927 144.635 C 139.240 142.490, 138.078 142.022, 134.677 142.118 C 132.380 142.183, 129.150 142.524, 127.500 142.876 M 173.011 144.642 C 173.032 149.983, 174.257 155, 175.542 155 C 176.869 155, 182 149.465, 182 148.034 C 182 146.306, 178.372 143.055, 175.750 142.434 C 173.238 141.840, 173.001 142.031, 173.011 144.642 M 102.190 146.975 C 91.790 153.473, 95.615 170, 107.518 170 C 112.985 170, 118.273 164.886, 119.584 158.330 C 120.306 154.720, 118.005 149.108, 115.044 147.260 C 111.224 144.874, 105.747 144.753, 102.190 146.975 M 131.250 147.019 C 129.750 147.630, 129 148.780, 129 150.468 C 129 153.457, 129.167 153.489, 133.646 151.364 C 139.161 148.747, 136.932 144.705, 131.250 147.019 M 85.472 148.045 C 85.117 148.620, 84.500 152.108, 84.103 155.795 L 83.379 162.500 81.389 156 C 79.826 150.896, 78.939 149.433, 77.255 149.188 C 74.995 148.859, 74.474 150.112, 72.346 161 L 71.467 165.500 68.484 158.013 C 66.570 153.212, 64.872 150.406, 63.750 150.190 C 62.633 149.975, 62 150.473, 62 151.566 C 62 154.889, 68.035 172.784, 69.591 174.075 C 71.970 176.050, 74.270 174.087, 75.926 168.668 C 76.711 166.100, 77.686 164, 78.093 164 C 78.500 164, 79.468 165.912, 80.244 168.250 C 81.360 171.615, 82.191 172.564, 84.231 172.807 C 86.383 173.064, 86.975 172.570, 87.829 169.807 C 89.346 164.898, 91.290 149.278, 90.536 148.058 C 89.694 146.696, 86.311 146.687, 85.472 148.045 M 103.035 152.934 C 101.505 155.794, 101.778 160.635, 103.571 162.429 C 106.574 165.431, 111.187 163.770, 112.814 159.102 C 114.038 155.593, 112.872 153.599, 108.685 152.045 C 104.829 150.614, 104.226 150.708, 103.035 152.934" stroke="none" fill="#ff5757" fill-rule="evenodd"/><path d="M 124 4.995 C 122.625 5.455, 118.350 6.785, 114.500 7.950 C 110.650 9.115, 106.600 10.458, 105.500 10.934 C 97.620 14.344, 94.742 15.907, 96.264 15.950 C 97.234 15.978, 98.809 15.572, 99.764 15.048 C 101.296 14.209, 103.093 13.432, 111.500 9.973 C 113.620 9.101, 117.430 8.201, 122.715 7.323 C 124.483 7.030, 126.451 6.162, 127.087 5.395 C 128.374 3.844, 127.699 3.756, 124 4.995 M 178.956 21.552 C 180.051 23.311, 179.859 24.344, 177.617 28.769 C 175.706 32.541, 174.994 35.493, 174.978 39.717 C 174.962 43.912, 174.419 46.186, 173 48 C 169.319 52.706, 171.227 59.668, 176.799 61.861 C 178.284 62.445, 182.772 63.355, 186.771 63.883 C 190.846 64.420, 196.316 65.975, 199.217 67.421 C 204.669 70.138, 209.852 70.748, 211.708 68.892 C 212.317 68.283, 214.844 67.945, 217.323 68.142 C 220.844 68.422, 221.603 68.227, 220.793 67.250 C 219.393 65.564, 215.132 65.683, 211.636 67.506 C 207.837 69.488, 206.965 69.415, 200.777 66.597 C 192.910 63.015, 189.206 62, 183.999 62 C 178.480 62, 172.678 58.666, 172.180 55.209 C 172.003 53.987, 172.981 50.628, 174.352 47.744 C 175.966 44.347, 176.865 40.673, 176.903 37.315 C 176.939 34.059, 177.712 30.792, 178.981 28.535 C 181.434 24.167, 181.504 22.662, 179.339 20.872 C 177.836 19.630, 177.800 19.695, 178.956 21.552 M 69.556 34.152 C 55.520 47.436, 45.179 63.126, 39.164 80.266 C 36.275 88.497, 38.289 86.405, 41.592 77.743 C 49.074 58.126, 59.101 44.522, 78.500 27.669 C 80.150 26.236, 80.988 25.049, 80.363 25.032 C 79.738 25.014, 74.875 29.118, 69.556 34.152 M 225.545 82.549 C 225.170 85.051, 225.148 88.397, 225.496 89.984 C 226.242 93.377, 224.379 94.937, 215.863 98.050 C 209.270 100.460, 209.281 100.460, 208.476 97.925 C 207.612 95.201, 206.911 95.943, 207.656 98.794 C 208.300 101.254, 210.453 101.584, 214.703 99.875 C 216.241 99.257, 218.512 98.357, 219.750 97.875 C 227.087 95.020, 226.800 95.489, 226.800 86.385 C 226.800 81.773, 226.671 78, 226.514 78 C 226.356 78, 225.920 80.047, 225.545 82.549 M 197.166 122.309 C 197.727 124.064, 199.551 128.425, 201.219 132 C 202.935 135.679, 205.038 142.841, 206.064 148.500 C 208.690 162.992, 208.695 163.004, 214.755 172.191 C 216.133 174.279, 216.865 176.410, 216.441 177.096 C 215.963 177.868, 216.110 178.050, 216.845 177.595 C 218.614 176.502, 218.232 174.437, 215.686 171.327 C 211.283 165.948, 209.458 160.572, 206.919 145.500 C 206.270 141.650, 205.427 138.050, 205.045 137.500 C 203.514 135.294, 199 123.751, 199 122.041 C 199 121.036, 198.358 119.968, 197.573 119.666 C 196.396 119.215, 196.325 119.679, 197.166 122.309" stroke="none" fill="#2cc57e" fill-rule="evenodd"/><path d="M 93.010 14.395 C 94.332 16.093, 94.292 16.406, 92.623 17.395 C 91.599 18.003, 88.902 19.729, 86.630 21.232 C 84.359 22.734, 81.911 23.972, 81.191 23.982 C 80.471 23.992, 80.166 24.460, 80.514 25.023 C 81.141 26.038, 89 22.315, 89 21.003 C 89 20.656, 90.575 19.755, 92.500 19 C 96.611 17.387, 96.735 16.937, 93.767 14.405 C 91.593 12.550, 91.573 12.550, 93.010 14.395 M 160.070 17.750 C 160.109 20.363, 160.501 23.400, 160.942 24.500 C 161.450 25.766, 161.699 24.022, 161.622 19.750 C 161.555 16.038, 161.162 13, 160.750 13 C 160.338 13, 160.032 15.137, 160.070 17.750 M 160 33 C 160 34.100, 159.662 35.004, 159.250 35.008 C 157.597 35.025, 156 40.743, 156 46.640 C 156 50.073, 155.578 53.142, 155.063 53.461 C 152.356 55.134, 149.637 65, 151.883 65 C 152.369 65, 152.986 65.838, 153.254 66.862 C 153.982 69.648, 159.632 72, 165.595 72 C 168.503 72, 171.160 72.450, 171.500 73 C 171.840 73.550, 173.404 74, 174.976 74 C 176.547 74, 178.062 74.461, 178.342 75.025 C 178.621 75.589, 178.735 75.481, 178.595 74.785 C 178.263 73.138, 171.673 71.174, 166.151 71.077 C 160.330 70.974, 155.508 68.534, 153.684 64.767 C 152.070 61.435, 152.314 59.961, 155.163 55.846 C 156.452 53.983, 157 51.383, 157 47.131 C 157 42.528, 157.601 39.995, 159.500 36.593 C 162.281 31.611, 162.445 31, 161 31 C 160.450 31, 160 31.900, 160 33 M 198 75.966 C 203.936 77.697, 204.954 78.384, 206.538 81.721 C 207.853 84.493, 207.974 85.761, 207.105 87.669 C 205.762 90.616, 205.680 97.946, 206.967 99.981 C 207.578 100.947, 207.703 99.520, 207.326 95.867 C 206.949 92.215, 207.139 90.032, 207.874 89.578 C 208.493 89.195, 209 87.289, 209 85.341 C 209 80.378, 203.611 74.950, 198.850 75.118 C 195.768 75.227, 195.700 75.295, 198 75.966 M 29.336 98.629 L 33.169 102.758 33.387 117.629 C 33.593 131.768, 35.999 150.140, 36.798 143.679 C 36.989 142.128, 36.664 139.473, 36.073 137.780 C 35.483 136.087, 35 127.662, 35 119.059 L 35 103.416 30.251 98.958 L 25.502 94.500 29.336 98.629 M 178.142 126.300 C 178.009 131.735, 180.311 139.023, 181.716 137.617 C 182.029 137.304, 181.692 136.334, 180.967 135.461 C 180.243 134.588, 179.342 130.864, 178.967 127.187 L 178.284 120.500 178.142 126.300 M 109 130 C 109 130.582, 112.240 130.994, 116.750 130.985 C 122.123 130.974, 124.040 130.672, 123 130 C 121.010 128.714, 109 128.714, 109 130 M 37 147.885 C 37 150.202, 40.860 160.388, 44.813 168.500 C 50.432 180.032, 56.431 188.493, 66.085 198.500 C 70.330 202.900, 74.499 208.188, 75.350 210.250 C 76.658 213.418, 77.368 214, 79.929 214 C 81.614 214, 88.187 216.593, 94.730 219.840 C 101.204 223.051, 109.875 226.674, 114 227.890 C 118.125 229.106, 123.188 230.717, 125.250 231.470 C 127.313 232.223, 129 232.587, 129 232.280 C 129 230.899, 125.214 229.061, 122.309 229.032 C 120.554 229.014, 118.840 228.550, 118.500 228 C 118.160 227.450, 116.810 227, 115.500 227 C 114.190 227, 112.876 226.608, 112.580 226.129 C 112.284 225.650, 110.715 224.993, 109.094 224.669 C 105.493 223.949, 98.398 220.696, 90.832 216.296 C 87.460 214.335, 83.794 213, 81.782 213 C 77.071 213, 76.022 211.507, 75.850 204.550 C 75.768 201.223, 75.513 199.738, 75.284 201.250 C 75.055 202.762, 74.548 204, 74.159 204 C 73.050 204, 59.569 189.900, 56.948 186 C 55.655 184.075, 54.317 182.275, 53.975 182 C 53.634 181.725, 53.046 180.825, 52.670 180 C 52.294 179.175, 50.870 176.700, 49.505 174.500 C 44.872 167.035, 39 152.642, 39 148.754 C 39 147.789, 38.550 147, 38 147 C 37.450 147, 37 147.398, 37 147.885 M 187.108 157.434 C 186.804 168.514, 193.269 180.774, 203.920 189.322 C 208.401 192.917, 206.799 190.312, 201.020 184.602 C 193.999 177.667, 189.997 170.029, 188.394 160.500 C 187.457 154.935, 187.193 154.306, 187.108 157.434" stroke="none" fill="#20a7f8" fill-rule="evenodd"/></svg>